<svg width="24" height="25" viewBox="0 0 24 25" fill="none" xmlns="http://www.w3.org/2000/svg">
<path d="M10.1912 16.13C10.0688 16.0031 10 15.8311 10 15.6517C10 15.4722 10.0688 15.3002 10.1912 15.1733L13.4237 11.824L10.1912 8.47479C10.0722 8.34718 10.0064 8.17627 10.0079 7.99886C10.0094 7.82146 10.0781 7.65175 10.1992 7.5263C10.3202 7.40085 10.484 7.32969 10.6552 7.32815C10.8265 7.32661 10.9914 7.39481 11.1146 7.51806L14.8088 11.3457C14.9312 11.4726 15 11.6446 15 11.824C15 12.0035 14.9312 12.1755 14.8088 12.3024L11.1146 16.13C10.9921 16.2569 10.8261 16.3281 10.6529 16.3281C10.4797 16.3281 10.3137 16.2569 10.1912 16.13Z" fill="#007AA9"/>
</svg>
