<svg width="18" height="18" viewBox="0 0 18 18" fill="none" xmlns="http://www.w3.org/2000/svg">
<path d="M12.8019 7.1912C12.675 7.06877 12.5029 7 12.3235 7C12.1441 7 11.972 7.06877 11.8452 7.1912L8.49592 10.4237L5.14667 7.1912C5.01906 7.07224 4.84814 7.00642 4.67074 7.00791C4.49333 7.0094 4.32363 7.07808 4.19818 7.19915C4.07273 7.32023 4.00157 7.48402 4.00003 7.65524C3.99848 7.82647 4.06668 7.99142 4.18993 8.11459L8.01755 11.8088C8.14443 11.9312 8.3165 12 8.49592 12C8.67533 12 8.8474 11.9312 8.97428 11.8088L12.8019 8.11459C12.9287 7.99213 13 7.82606 13 7.65289C13 7.47973 12.9287 7.31366 12.8019 7.1912Z" fill="#090D1B"/>
</svg>
