<svg width="14" height="25" viewBox="0 0 14 25" fill="none" xmlns="http://www.w3.org/2000/svg">
<path d="M1.26414 8.92393C1.43332 8.75253 1.66274 8.65625 1.90196 8.65625C2.14118 8.65625 2.37061 8.75253 2.53978 8.92393L7.00545 13.4495L11.4711 8.92393C11.6413 8.75739 11.8691 8.66524 12.1057 8.66732C12.3422 8.66941 12.5685 8.76556 12.7358 8.93507C12.903 9.10458 12.9979 9.33388 13 9.57359C13.002 9.8133 12.9111 10.0442 12.7468 10.2167L7.64327 15.3886C7.47409 15.56 7.24467 15.6562 7.00545 15.6562C6.76623 15.6562 6.5368 15.56 6.36762 15.3886L1.26414 10.2167C1.09501 10.0452 1 9.81273 1 9.5703C1 9.32788 1.09501 9.09538 1.26414 8.92393Z" fill="white"/>
</svg>
