<svg width="19" height="18" viewBox="0 0 19 18" fill="none" xmlns="http://www.w3.org/2000/svg">
<path d="M3.3125 7.875C3.16332 7.875 3.02024 7.81574 2.91475 7.71025C2.80926 7.60476 2.75 7.46169 2.75 7.3125V2.81363C2.75 2.66444 2.80926 2.52137 2.91475 2.41588C3.02024 2.31039 3.16332 2.25113 3.3125 2.25113H7.8125C7.96168 2.25113 8.10476 2.31039 8.21025 2.41588C8.31574 2.52137 8.375 2.66444 8.375 2.81363V7.3125C8.375 7.46169 8.31574 7.60476 8.21025 7.71025C8.10476 7.81574 7.96168 7.875 7.8125 7.875H3.3125ZM11.1875 7.875C11.0383 7.875 10.8952 7.81574 10.7898 7.71025C10.6843 7.60476 10.625 7.46169 10.625 7.3125V2.81363C10.625 2.66444 10.6843 2.52137 10.7898 2.41588C10.8952 2.31039 11.0383 2.25113 11.1875 2.25113H15.6864C15.8356 2.25113 15.9786 2.31039 16.0841 2.41588C16.1896 2.52137 16.2489 2.66444 16.2489 2.81363V7.3125C16.2489 7.46169 16.1896 7.60476 16.0841 7.71025C15.9786 7.81574 15.8356 7.875 15.6864 7.875H11.1875ZM3.3125 15.75C3.16332 15.75 3.02024 15.6907 2.91475 15.5853C2.80926 15.4798 2.75 15.3367 2.75 15.1875V10.6875C2.75 10.5383 2.80926 10.3952 2.91475 10.2898C3.02024 10.1843 3.16332 10.125 3.3125 10.125H7.8125C7.96168 10.125 8.10476 10.1843 8.21025 10.2898C8.31574 10.3952 8.375 10.5383 8.375 10.6875V15.1875C8.375 15.3367 8.31574 15.4798 8.21025 15.5853C8.10476 15.6907 7.96168 15.75 7.8125 15.75H3.3125ZM11.1875 15.75C11.0383 15.75 10.8952 15.6907 10.7898 15.5853C10.6843 15.4798 10.625 15.3367 10.625 15.1875V10.6875C10.625 10.5383 10.6843 10.3952 10.7898 10.2898C10.8952 10.1843 11.0383 10.125 11.1875 10.125H15.6864C15.8356 10.125 15.9786 10.1843 16.0841 10.2898C16.1896 10.3952 16.2489 10.5383 16.2489 10.6875V15.1875C16.2489 15.3367 16.1896 15.4798 16.0841 15.5853C15.9786 15.6907 15.8356 15.75 15.6864 15.75H11.1875Z" fill="white"/>
</svg>
