<svg width="18" height="19" viewBox="0 0 18 19" fill="none" xmlns="http://www.w3.org/2000/svg">
<g clip-path="url(#clip0_902_7414)">
<path d="M9.03125 1.45312C5.70029 1.45312 3 4.1534 3 7.48438C3 8.59834 3.21804 9.74887 3.84375 10.5781L9.03125 17.4531L14.2187 10.5781C14.7871 9.82493 15.0625 8.49337 15.0625 7.48438C15.0625 4.1534 12.3622 1.45312 9.03125 1.45312ZM9.03125 4.94628C10.4328 4.94628 11.5693 6.08284 11.5693 7.48436C11.5693 8.88592 10.4328 10.0225 9.03125 10.0225C7.62971 10.0225 6.49317 8.88593 6.49317 7.48438C6.49317 6.08284 7.62971 4.94628 9.03125 4.94628Z" fill="#007AA9"/>
</g>
<defs>
<clipPath id="clip0_902_7414">
<rect width="18" height="18" fill="white" transform="translate(0 0.453125)"/>
</clipPath>
</defs>
</svg>
