<svg width="18" height="18" viewBox="0 0 18 18" fill="none" xmlns="http://www.w3.org/2000/svg">
<path d="M15.3652 12.855L12.3165 10.083C12.1724 9.95201 11.983 9.88215 11.7883 9.88817C11.5937 9.89419 11.409 9.97561 11.2732 10.1152L9.47847 11.961C9.04647 11.8785 8.17797 11.6077 7.28397 10.716C6.38997 9.82125 6.11922 8.9505 6.03897 8.5215L7.88322 6.726C8.02303 6.59034 8.10457 6.40561 8.11059 6.2109C8.11661 6.01619 8.04663 5.82678 7.91547 5.68275L5.14422 2.63475C5.013 2.49026 4.83063 2.40262 4.63583 2.39044C4.44104 2.37826 4.24917 2.44249 4.10097 2.5695L2.47347 3.96525C2.3438 4.09538 2.26641 4.26858 2.25597 4.452C2.24472 4.6395 2.03022 9.081 5.47422 12.5265C8.47872 15.5302 12.2422 15.75 13.2787 15.75C13.4302 15.75 13.5232 15.7455 13.548 15.744C13.7314 15.7337 13.9045 15.656 14.034 15.5257L15.429 13.8975C15.5565 13.7498 15.6212 13.5581 15.6093 13.3633C15.5974 13.1685 15.5098 12.9861 15.3652 12.855Z" fill="#01A0E1"/>
</svg>
