<svg width="24" height="25" viewBox="0 0 24 25" fill="none" xmlns="http://www.w3.org/2000/svg">
<path fill-rule="evenodd" clip-rule="evenodd" d="M11.99 2.32812C6.47 2.32812 2 6.80813 2 12.3281C2 17.8481 6.47 22.3281 11.99 22.3281C17.52 22.3281 22 17.8481 22 12.3281C22 6.80813 17.52 2.32812 11.99 2.32812ZM19.47 9.48812L14.46 9.05813L12.46 4.34812C15.67 4.53813 18.37 6.61812 19.47 9.48812ZM12 14.3081L14.4 15.7481L13.76 13.0181L15.87 11.1881L13.09 10.9481L12 8.38812L10.91 10.9581L8.13 11.1981L10.24 13.0281L9.61 15.7481L12 14.3081ZM11.54 4.34812L9.54 9.06812L4.52 9.49813C5.62 6.61812 8.32 4.52813 11.54 4.34812ZM4.23 10.4681C4.08 11.0681 4 11.6881 4 12.3281C4 14.8081 5.13 17.0281 6.91 18.4981L8.02 13.7481L4.23 10.4681ZM7.84 19.1481L12 16.6381L16.16 19.1381C14.94 19.8881 13.52 20.3281 11.99 20.3281C10.47 20.3281 9.05 19.8881 7.84 19.1481ZM15.98 13.7481L17.09 18.4981C18.86 17.0281 20 14.8081 20 12.3281C20 11.6881 19.91 11.0581 19.77 10.4681L15.98 13.7481Z" fill="#828282"/>
</svg>
