<svg width="24" height="25" viewBox="0 0 24 25" fill="none" xmlns="http://www.w3.org/2000/svg">
<path fill-rule="evenodd" clip-rule="evenodd" d="M20.5 5.32812V7.60813C21.09 7.95813 21.5 8.58813 21.5 9.32812V15.3281C21.5 16.0681 21.09 16.6981 20.5 17.0481V19.3281C20.5 20.4281 19.6 21.3281 18.5 21.3281H4.5C3.39 21.3281 2.5 20.4281 2.5 19.3281V5.32812C2.5 4.22812 3.39 3.32812 4.5 3.32812H18.5C19.6 3.32812 20.5 4.22812 20.5 5.32812ZM12.5 15.3281H19.5V9.32812H12.5V15.3281ZM4.5 19.3281V5.32812H18.5V7.32812H12.5C11.4 7.32812 10.5 8.22813 10.5 9.32812V15.3281C10.5 16.4281 11.4 17.3281 12.5 17.3281H18.5V19.3281H4.5ZM14 12.3281C14 11.4997 14.6716 10.8281 15.5 10.8281C16.3284 10.8281 17 11.4997 17 12.3281C17 13.1566 16.3284 13.8281 15.5 13.8281C14.6716 13.8281 14 13.1566 14 12.3281Z" fill="#828282"/>
</svg>
