<svg width="25" height="25" viewBox="0 0 25 25" fill="none" xmlns="http://www.w3.org/2000/svg">
<path d="M24.2194 7.16333C24.0835 6.67856 23.8188 6.23967 23.4534 5.89333C23.0777 5.53633 22.6172 5.28096 22.1154 5.15133C20.2374 4.65633 12.7134 4.65633 12.7134 4.65633C9.5767 4.62064 6.4408 4.7776 3.32337 5.12633C2.82156 5.26554 2.36193 5.52661 1.98537 5.88633C1.61537 6.24233 1.34737 6.68133 1.20737 7.16233C0.87106 8.97407 0.707659 10.8136 0.719367 12.6563C0.707367 14.4973 0.870367 16.3363 1.20737 18.1503C1.34437 18.6293 1.61137 19.0663 1.98237 19.4193C2.35337 19.7723 2.81537 20.0273 3.32337 20.1623C5.22637 20.6563 12.7134 20.6563 12.7134 20.6563C15.8541 20.692 18.994 20.5351 22.1154 20.1863C22.6172 20.0566 23.0777 19.8013 23.4534 19.4443C23.8187 19.098 24.0831 18.6591 24.2184 18.1743C24.5635 16.3632 24.7313 14.5229 24.7194 12.6793C24.7454 10.8279 24.5778 8.97889 24.2194 7.16233V7.16333ZM10.3214 16.0803V9.23333L16.5814 12.6573L10.3214 16.0803Z" fill="#01A0E1"/>
</svg>
