<svg width="20" height="21" viewBox="0 0 20 21" fill="none" xmlns="http://www.w3.org/2000/svg">
<path d="M8.51603 13.9904C8.43542 13.9904 8.35985 13.9779 8.28932 13.9528C8.21879 13.9282 8.1533 13.886 8.09285 13.8263L5.49328 11.2611C5.38245 11.1517 5.32945 11.0099 5.33429 10.8357C5.33953 10.6619 5.39756 10.5203 5.5084 10.411C5.61923 10.3016 5.76029 10.2469 5.93158 10.2469C6.10287 10.2469 6.24393 10.3016 6.35477 10.411L8.51603 12.5437L13.6396 7.48779C13.7504 7.37842 13.8941 7.32373 14.0706 7.32373C14.2468 7.32373 14.3902 7.37842 14.5011 7.48779C14.6119 7.59716 14.6673 7.73874 14.6673 7.91254C14.6673 8.08674 14.6119 8.22853 14.5011 8.3379L8.93921 13.8263C8.87876 13.886 8.81327 13.9282 8.74274 13.9528C8.6722 13.9779 8.59664 13.9904 8.51603 13.9904Z" fill="#007AA9"/>
<rect x="0.666667" y="1.32292" width="18.6667" height="18.6667" rx="9.33333" stroke="#007AA9" stroke-width="1.33333"/>
</svg>
