<svg width="24" height="25" viewBox="0 0 24 25" fill="none" xmlns="http://www.w3.org/2000/svg">
<path fill-rule="evenodd" clip-rule="evenodd" d="M15 4.32812C10.58 4.32812 7 7.90812 7 12.3281C7 16.7481 10.58 20.3281 15 20.3281C19.42 20.3281 23 16.7481 23 12.3281C23 7.90812 19.42 4.32812 15 4.32812ZM15 18.3281C11.69 18.3281 9 15.6381 9 12.3281C9 9.01813 11.69 6.32812 15 6.32812C18.31 6.32812 21 9.01813 21 12.3281C21 15.6381 18.31 18.3281 15 18.3281ZM7 6.67812C4.67 7.49812 3 9.71812 3 12.3281C3 14.9381 4.67 17.1581 7 17.9781V20.0681C3.55 19.1781 1 16.0581 1 12.3281C1 8.59812 3.55 5.47812 7 4.58812V6.67812Z" fill="#828282"/>
</svg>
