<svg width="24" height="25" viewBox="0 0 24 25" fill="none" xmlns="http://www.w3.org/2000/svg">
<path fill-rule="evenodd" clip-rule="evenodd" d="M4.5 12.3281C4.5 7.35813 8.53 3.32812 13.5 3.32812C18.47 3.32812 22.5 7.35813 22.5 12.3281C22.5 17.2981 18.47 21.3281 13.5 21.3281C11.01 21.3281 8.77 20.3181 7.14 18.6881L8.56 17.2681C9.82 18.5381 11.57 19.3281 13.5 19.3281C17.37 19.3281 20.5 16.1981 20.5 12.3281C20.5 8.45813 17.37 5.32812 13.5 5.32812C9.63 5.32812 6.5 8.45813 6.5 12.3281H9.5L5.5 16.3181L1.5 12.3281H4.5ZM12.5 13.3281V8.32812H14V12.4781L17.52 14.5681L16.75 15.8481L12.5 13.3281Z" fill="#828282"/>
</svg>
