<svg width="24" height="24" viewBox="0 0 24 24" fill="none" xmlns="http://www.w3.org/2000/svg">
<path d="M18.9729 11.9205C19.1681 12.1368 19.2762 12.4179 19.2762 12.7093C19.2762 13.0007 19.1681 13.2818 18.9729 13.4981C17.7367 14.8285 14.9228 17.4186 11.6381 17.4186C8.35334 17.4186 5.53952 14.8285 4.30333 13.4981C4.10808 13.2818 4 13.0007 4 12.7093C4 12.4179 4.10808 12.1368 4.30333 11.9205C5.53952 10.5901 8.35334 8 11.6381 8C14.9228 8 17.7367 10.5901 18.9729 11.9205Z" stroke="#575757" stroke-width="1.71429" stroke-linecap="round" stroke-linejoin="round"/>
<path d="M11.6379 15.0641C12.9383 15.0641 13.9925 14.0098 13.9925 12.7094C13.9925 11.409 12.9383 10.3547 11.6379 10.3547C10.3374 10.3547 9.2832 11.409 9.2832 12.7094C9.2832 14.0098 10.3374 15.0641 11.6379 15.0641Z" stroke="#575757" stroke-width="1.71429" stroke-linecap="round" stroke-linejoin="round"/>
</svg>
