<svg width="24" height="24" viewBox="0 0 24 24" fill="none" xmlns="http://www.w3.org/2000/svg">
<path d="M17.866 10.5916C18.3134 10.9918 18.6901 11.3804 18.9727 11.6865C19.1679 11.9028 19.276 12.1839 19.276 12.4753C19.276 12.7667 19.1679 13.0478 18.9727 13.2641C17.7365 14.5945 14.9227 17.1846 11.6379 17.1846H11.167" stroke="#575757" stroke-width="1.71429" stroke-linecap="round" stroke-linejoin="round"/>
<path d="M7.95305 16.1604C6.58927 15.3966 5.35701 14.4187 4.30333 13.2641C4.10808 13.0478 4 12.7667 4 12.4753C4 12.1839 4.10808 11.9028 4.30333 11.6865C5.53952 10.3561 8.35334 7.76599 11.6381 7.76599C12.9329 7.79305 14.2001 8.14528 15.3231 8.79027" stroke="#575757" stroke-width="1.71429" stroke-linecap="round" stroke-linejoin="round"/>
<path d="M18.1132 6L5.1626 18.9506" stroke="#575757" stroke-width="1.71429" stroke-linecap="round" stroke-linejoin="round"/>
<path d="M9.97783 14.1354C9.53564 13.6959 9.28583 13.0989 9.2832 12.4754C9.2832 11.8509 9.53128 11.252 9.97287 10.8104C10.4145 10.3688 11.0134 10.1207 11.6379 10.1207C12.2613 10.1234 12.8583 10.3732 13.2979 10.8154" stroke="#575757" stroke-width="1.71429" stroke-linecap="round" stroke-linejoin="round"/>
<path d="M13.6867 13.6526C13.4771 14.0109 13.1765 14.3073 12.8154 14.512" stroke="#575757" stroke-width="1.71429" stroke-linecap="round" stroke-linejoin="round"/>
</svg>
