<svg width="24" height="25" viewBox="0 0 24 25" fill="none" xmlns="http://www.w3.org/2000/svg">
<path fill-rule="evenodd" clip-rule="evenodd" d="M13.3374 9.16866L12.5453 7.58435H9.58447H8.58447V8.58435V11.3373V12.3373H9.58447H13.3374L14.1296 13.9216H16.2982H17.2982V12.9216V10.1687V9.16866H16.2982H13.3374ZM13.3373 6L14.1294 7.58431H17.8824H18.8824V8.58431V14.5059V15.5059H17.8824H13.3373L12.5451 13.9216H9.58431H8.58431V14.9216V18.4667V19.4667H8H7.58431H7V18.4667V7V6H8H13.3373Z" fill="#828282"/>
<path d="M13.3374 9.16866L13.1625 9.25612L13.2166 9.36422H13.3374V9.16866ZM12.5453 7.58435L12.7202 7.4969L12.6661 7.3888H12.5453V7.58435ZM8.58447 7.58435V7.3888H8.38892V7.58435H8.58447ZM8.58447 12.3373H8.38892V12.5328H8.58447V12.3373ZM13.3374 12.3373L13.5123 12.2498L13.4583 12.1417H13.3374V12.3373ZM14.1296 13.9216L13.9547 14.0091L14.0087 14.1172H14.1296V13.9216ZM17.2982 13.9216V14.1172H17.4938V13.9216H17.2982ZM17.2982 9.16866H17.4938V8.97311H17.2982V9.16866ZM13.3373 6L13.5122 5.91254L13.4581 5.80444H13.3373V6ZM14.1294 7.58431L13.9545 7.67177L14.0086 7.77987H14.1294V7.58431ZM18.8824 7.58431H19.0779V7.38876H18.8824V7.58431ZM18.8824 15.5059V15.7014H19.0779V15.5059H18.8824ZM13.3373 15.5059L13.1623 15.5933L13.2164 15.7014H13.3373V15.5059ZM12.5451 13.9216L12.72 13.8341L12.666 13.726H12.5451V13.9216ZM8.58431 13.9216V13.726H8.38876V13.9216H8.58431ZM8.58431 19.4667V19.6622H8.77987V19.4667H8.58431ZM7 19.4667H6.80444V19.6622H7V19.4667ZM7 6V5.80444H6.80444V6H7ZM13.5123 9.08121L12.7202 7.4969L12.3703 7.67181L13.1625 9.25612L13.5123 9.08121ZM12.5453 7.3888H9.58447V7.77991H12.5453V7.3888ZM9.58447 7.3888H8.58447V7.77991H9.58447V7.3888ZM8.38892 7.58435V8.58435H8.78003V7.58435H8.38892ZM8.38892 8.58435V11.3373H8.78003V8.58435H8.38892ZM8.38892 11.3373V12.3373H8.78003V11.3373H8.38892ZM8.58447 12.5328H9.58447V12.1417H8.58447V12.5328ZM9.58447 12.5328H13.3374V12.1417H9.58447V12.5328ZM13.1625 12.4247L13.9547 14.0091L14.3045 13.8341L13.5123 12.2498L13.1625 12.4247ZM14.1296 14.1172H16.2982V13.726H14.1296V14.1172ZM16.2982 14.1172H17.2982V13.726H16.2982V14.1172ZM17.4938 13.9216V12.9216H17.1026V13.9216H17.4938ZM17.4938 12.9216V10.1687H17.1026V12.9216H17.4938ZM17.4938 10.1687V9.16866H17.1026V10.1687H17.4938ZM17.2982 8.97311H16.2982V9.36422H17.2982V8.97311ZM16.2982 8.97311H13.3374V9.36422H16.2982V8.97311ZM13.1623 6.08746L13.9545 7.67177L14.3043 7.49686L13.5122 5.91254L13.1623 6.08746ZM14.1294 7.77987H17.8824V7.38876H14.1294V7.77987ZM17.8824 7.77987H18.8824V7.38876H17.8824V7.77987ZM18.6868 7.58431V8.58431H19.0779V7.58431H18.6868ZM18.6868 8.58431V14.5059H19.0779V8.58431H18.6868ZM18.6868 14.5059V15.5059H19.0779V14.5059H18.6868ZM18.8824 15.3103H17.8824V15.7014H18.8824V15.3103ZM17.8824 15.3103H13.3373V15.7014H17.8824V15.3103ZM13.5122 15.4184L12.72 13.8341L12.3702 14.009L13.1623 15.5933L13.5122 15.4184ZM12.5451 13.726H9.58431V14.1171H12.5451V13.726ZM9.58431 13.726H8.58431V14.1171H9.58431V13.726ZM8.38876 13.9216V14.9216H8.77987V13.9216H8.38876ZM8.38876 14.9216V18.4667H8.77987V14.9216H8.38876ZM8.38876 18.4667V19.4667H8.77987V18.4667H8.38876ZM8.58431 19.2711H8V19.6622H8.58431V19.2711ZM8 19.2711H7.58431V19.6622H8V19.2711ZM7.58431 19.2711H7V19.6622H7.58431V19.2711ZM7.19556 19.4667V18.4667H6.80444V19.4667H7.19556ZM7.19556 18.4667V7H6.80444V18.4667H7.19556ZM7.19556 7V6H6.80444V7H7.19556ZM7 6.19556H8V5.80444H7V6.19556ZM8 6.19556H13.3373V5.80444H8V6.19556Z" fill="#828282"/>
<rect x="3" y="3" width="18" height="18" rx="9" stroke="#828282" stroke-width="2"/>
</svg>
