<svg width="33" height="32" viewBox="0 0 33 32" fill="none" xmlns="http://www.w3.org/2000/svg">
<rect x="0.5" width="32" height="32" rx="4.57143" fill="#F14336"/>
<g clip-path="url(#clip0_357_5174)">
<path d="M12.0459 17.6684L11.489 19.7475L9.4534 19.7906C8.84506 18.6622 8.5 17.3713 8.5 15.9994C8.5 14.6728 8.82262 13.4218 9.39449 12.3203H9.39493L11.2072 12.6526L12.001 14.4539C11.8349 14.9383 11.7443 15.4583 11.7443 15.9994C11.7444 16.5867 11.8508 17.1493 12.0459 17.6684Z" fill="white"/>
<path d="M24.3601 14.5059C24.452 14.9898 24.4999 15.4896 24.4999 16.0004C24.4999 16.5731 24.4396 17.1318 24.3249 17.6707C23.9355 19.5045 22.9179 21.1058 21.5083 22.239L21.5078 22.2386L19.2252 22.1221L18.9021 20.1054C19.8375 19.5568 20.5685 18.6984 20.9536 17.6707H16.6758V14.5059H21.016H24.3601Z" fill="white"/>
<path d="M21.5076 22.2381L21.508 22.2386C20.137 23.3405 18.3955 23.9999 16.4997 23.9999C13.4531 23.9999 10.8043 22.297 9.45312 19.7911L12.0456 17.6689C12.7212 19.472 14.4606 20.7555 16.4997 20.7555C17.3761 20.7555 18.1973 20.5186 18.9019 20.105L21.5076 22.2381Z" fill="white"/>
<path d="M21.6024 9.84174L19.0108 11.9635C18.2816 11.5077 17.4196 11.2444 16.4961 11.2444C14.4108 11.2444 12.639 12.5868 11.9972 14.4545L9.39106 12.3208H9.39062C10.7221 9.75383 13.4042 8 16.4961 8C18.4372 8 20.2169 8.69143 21.6024 9.84174Z" fill="white"/>
</g>
<defs>
<clipPath id="clip0_357_5174">
<rect width="15.9999" height="15.9999" fill="white" transform="translate(8.5 8)"/>
</clipPath>
</defs>
</svg>
