<svg width="33" height="32" viewBox="0 0 33 32" fill="none" xmlns="http://www.w3.org/2000/svg">
<rect x="0.5" width="32" height="32" rx="4.57143" fill="#005FF9"/>
<g clip-path="url(#clip0_357_5190)">
<path d="M19.7414 15.9081C19.635 13.8357 18.0961 12.5891 16.2378 12.5891H16.1678C14.0233 12.5891 12.8342 14.2754 12.8342 16.1912C12.8342 18.3357 14.2728 19.6905 16.1597 19.6905C18.2628 19.6905 19.646 18.1496 19.7461 16.3273L19.7414 15.9081H19.7414ZM16.1782 10.734C17.6111 10.734 18.9585 11.3674 19.9475 12.3592V12.3629C19.9475 11.887 20.268 11.528 20.7127 11.528L20.8253 11.5272C21.5208 11.5272 21.664 12.1856 21.664 12.3939L21.6672 19.796C21.618 20.2808 22.1674 20.5311 22.4718 20.2198C23.6606 18.9983 25.0824 13.9402 21.7329 11.0102C18.6114 8.27794 14.4229 8.728 12.1953 10.2635C9.82708 11.8967 8.31207 15.5118 9.78387 18.907C11.3885 22.61 15.9797 23.7145 18.7086 22.6127C20.0904 22.055 20.7284 23.9227 19.2933 24.5331C17.1252 25.4566 11.0896 25.3634 8.2704 20.4794C6.36552 17.1819 6.46646 11.3798 11.5189 8.37395C15.3836 6.0737 20.4793 6.71035 23.5518 9.91917C26.7635 13.2737 26.5758 19.5556 23.4436 21.9974C22.0242 23.1072 19.9159 22.0276 19.9292 20.4108L19.9148 19.8822C18.9265 20.8629 17.6111 21.4351 16.1782 21.4351C13.3471 21.4351 10.856 18.9447 10.856 16.1132C10.856 13.2544 13.3471 10.734 16.1782 10.734" fill="#FF9E00"/>
</g>
<defs>
<clipPath id="clip0_357_5190">
<rect width="18.7491" height="17.9881" fill="white" transform="translate(7.12891 7)"/>
</clipPath>
</defs>
</svg>
