<svg width="32" height="33" viewBox="0 0 32 33" fill="none" xmlns="http://www.w3.org/2000/svg">
<path d="M32 27.9735C32 30.5598 29.9141 32.6562 27.3411 32.6562H4.65885C2.08581 32.6562 0 30.5598 0 27.9735V5.339C0 2.75276 2.08581 0.65625 4.65885 0.65625H27.3411C29.9142 0.65625 32 2.75276 32 5.339V27.9735Z" fill="#F7931E"/>
<path d="M15.9721 6.65625C13.1473 6.65625 10.8574 8.95796 10.8574 11.7972C10.8574 14.6364 13.1473 16.9383 15.9721 16.9383C18.7969 16.9383 21.0868 14.6364 21.0868 11.7972C21.0868 8.95796 18.7969 6.65625 15.9721 6.65625ZM15.9721 13.9224C14.8044 13.9224 13.8578 12.9709 13.8578 11.7972C13.8578 10.6236 14.8044 9.6721 15.9721 9.6721C17.1398 9.6721 18.0864 10.6236 18.0864 11.7972C18.0864 12.9709 17.1398 13.9224 15.9721 13.9224Z" fill="white"/>
<path d="M17.7769 21.0289C19.8245 20.6096 21.0515 19.635 21.1165 19.5827C21.7156 19.0997 21.8119 18.22 21.3314 17.6176C20.8509 17.0154 19.9757 16.9186 19.3764 17.4016C19.3637 17.4119 18.055 18.4209 15.9017 18.4224C13.7485 18.4209 12.4121 17.4119 12.3994 17.4016C11.8001 16.9186 10.9249 17.0154 10.4445 17.6176C9.96396 18.22 10.0602 19.0997 10.6594 19.5827C10.7252 19.6357 12.0029 20.6358 14.1079 21.0452L11.1742 24.1269C10.641 24.6826 10.657 25.5675 11.21 26.1034C11.4798 26.3649 11.8276 26.4949 12.1752 26.4949C12.5395 26.4949 12.9035 26.3518 13.1764 26.0674L15.9018 23.1492L18.9025 26.0863C19.4462 26.6319 20.3265 26.631 20.8692 26.0847C21.4119 25.5384 21.4112 24.6533 20.8677 24.1079L17.7769 21.0289Z" fill="white"/>
</svg>
