<svg width="24" height="25" viewBox="0 0 24 25" fill="none" xmlns="http://www.w3.org/2000/svg">
<path fill-rule="evenodd" clip-rule="evenodd" d="M9.19 9.45813L12 2.82812L14.81 9.45813L22 10.0681L16.54 14.7981L18.18 21.8281L12 18.0981L5.82 21.8281L7.46 14.7981L2 10.0681L9.19 9.45813ZM12.97 10.2481L12 7.95813L11.03 10.2281L10.56 11.3381L9.36 11.4381L6.89 11.6481L8.77 13.2781L9.68 14.0681L9.41 15.2481L8.85 17.6581L10.97 16.3781L12 15.7581L13.03 16.3981L15.15 17.6781L14.59 15.2681L14.32 14.0881L15.23 13.2981L17.11 11.6681L14.64 11.4581L13.44 11.3581L12.97 10.2481Z" fill="#828282"/>
</svg>
