<svg width="32" height="33" viewBox="0 0 32 33" fill="none" xmlns="http://www.w3.org/2000/svg">
<rect y="0.65625" width="32" height="32" rx="4.57143" fill="#406D97"/>
<path d="M25.3956 21.0256C25.3726 20.976 25.3511 20.9348 25.3312 20.9019C25.0015 20.308 24.3714 19.5792 23.4413 18.715L23.4217 18.6952L23.4118 18.6855L23.4019 18.6756H23.3919C22.9698 18.2732 22.7025 18.0026 22.5905 17.8641C22.3857 17.6002 22.3398 17.3331 22.4518 17.0625C22.5309 16.858 22.8279 16.4262 23.3423 15.7664C23.6129 15.4168 23.8272 15.1365 23.9854 14.9254C25.1267 13.4081 25.6215 12.4386 25.4697 12.0164L25.4107 11.9177C25.3711 11.8583 25.2689 11.804 25.1041 11.7544C24.939 11.705 24.728 11.6968 24.4707 11.7297L21.6211 11.7494C21.5749 11.7331 21.509 11.7346 21.4231 11.7544C21.3374 11.7742 21.2945 11.7842 21.2945 11.7842L21.2449 11.809L21.2055 11.8387C21.1725 11.8584 21.1362 11.893 21.0966 11.9425C21.0572 11.9918 21.0242 12.0497 20.9979 12.1157C20.6877 12.9138 20.3349 13.6559 19.939 14.3419C19.695 14.751 19.4708 15.1055 19.2661 15.4056C19.0616 15.7057 18.8901 15.9268 18.7517 16.0685C18.6131 16.2103 18.488 16.324 18.3756 16.4098C18.2634 16.4957 18.1778 16.532 18.1185 16.5187C18.0591 16.5054 18.0031 16.4923 17.9501 16.4791C17.8578 16.4197 17.7836 16.3389 17.7276 16.2367C17.6714 16.1344 17.6336 16.0058 17.6138 15.8507C17.5941 15.6956 17.5824 15.5622 17.5791 15.45C17.576 15.338 17.5774 15.1795 17.5841 14.975C17.591 14.7704 17.5941 14.632 17.5941 14.5594C17.5941 14.3087 17.599 14.0366 17.6088 13.7431C17.6188 13.4496 17.6268 13.217 17.6336 13.0456C17.6403 12.8741 17.6434 12.6927 17.6434 12.5014C17.6434 12.3101 17.6318 12.16 17.6088 12.0511C17.586 11.9424 17.5511 11.8368 17.5051 11.7345C17.4589 11.6322 17.3912 11.5532 17.3023 11.497C17.2133 11.4409 17.1026 11.3964 16.9709 11.3634C16.6212 11.2843 16.176 11.2415 15.6349 11.2348C14.4081 11.2216 13.6197 11.3009 13.2701 11.4724C13.1316 11.5448 13.0063 11.6439 12.8942 11.7691C12.7754 11.9143 12.7588 11.9935 12.8446 12.0065C13.2404 12.0658 13.5207 12.2077 13.6856 12.4319L13.745 12.5508C13.7913 12.6365 13.8374 12.7883 13.8836 13.006C13.9297 13.2236 13.9595 13.4644 13.9726 13.7281C14.0055 14.2097 14.0055 14.622 13.9726 14.965C13.9396 15.3081 13.9084 15.5751 13.8786 15.7665C13.8489 15.9578 13.8044 16.1128 13.745 16.2315C13.6856 16.3502 13.646 16.4228 13.6262 16.4491C13.6064 16.4755 13.5899 16.4921 13.5768 16.4986C13.4911 16.5314 13.4019 16.5482 13.3096 16.5482C13.2172 16.5482 13.1051 16.5019 12.9732 16.4095C12.8414 16.3171 12.7045 16.1902 12.5627 16.0286C12.4208 15.8669 12.2608 15.641 12.0827 15.3508C11.9046 15.0606 11.7199 14.7176 11.5286 14.3218L11.3703 14.0348C11.2714 13.8501 11.1362 13.5813 10.9647 13.2284C10.7931 12.8754 10.6414 12.534 10.5095 12.2042C10.4568 12.0657 10.3776 11.9602 10.2721 11.8876L10.2226 11.8579C10.1897 11.8315 10.1368 11.8036 10.0643 11.7737C9.99169 11.744 9.91594 11.7226 9.83671 11.7095L7.12557 11.7292C6.84853 11.7292 6.66055 11.7919 6.56157 11.9173L6.52196 11.9766C6.50217 12.0096 6.49219 12.0624 6.49219 12.135C6.49219 12.2075 6.51198 12.2966 6.55159 12.4021C6.94737 13.3323 7.37776 14.2293 7.84279 15.0935C8.30781 15.9576 8.7119 16.6537 9.05483 17.1811C9.39782 17.7088 9.74744 18.207 10.1037 18.6752C10.4599 19.1436 10.6957 19.4437 10.8111 19.5756C10.9266 19.7077 11.0173 19.8065 11.0833 19.8724L11.3307 20.1098C11.489 20.2682 11.7215 20.4578 12.0282 20.6788C12.335 20.8998 12.6747 21.1175 13.0474 21.332C13.4202 21.5463 13.8538 21.7211 14.3486 21.8563C14.8433 21.9916 15.3248 22.0459 15.7932 22.0197H16.9311C17.1619 21.9998 17.3368 21.9272 17.4556 21.8019L17.495 21.7524C17.5214 21.713 17.5462 21.6518 17.5691 21.5695C17.5922 21.4871 17.6037 21.3962 17.6037 21.2974C17.597 21.0138 17.6186 20.7582 17.6679 20.5307C17.7172 20.3032 17.7735 20.1317 17.8363 20.0162C17.8992 19.9008 17.9701 19.8034 18.049 19.7244C18.1281 19.6453 18.1844 19.5974 18.2175 19.5809C18.2503 19.5643 18.2766 19.553 18.2964 19.5463C18.4547 19.4935 18.641 19.5446 18.8556 19.6998C19.07 19.8548 19.2711 20.0462 19.4592 20.2737C19.6472 20.5014 19.8731 20.7568 20.1369 21.0404C20.4009 21.3241 20.6317 21.535 20.8295 21.6737L21.0274 21.7925C21.1595 21.8717 21.331 21.9442 21.5421 22.0102C21.7529 22.0761 21.9375 22.0926 22.0961 22.0597L24.629 22.0201C24.8795 22.0201 25.0745 21.9787 25.2128 21.8964C25.3513 21.8139 25.4336 21.7231 25.4602 21.6243C25.4866 21.5254 25.4881 21.4131 25.4652 21.2877C25.4417 21.1625 25.4186 21.075 25.3956 21.0256Z" fill="white"/>
</svg>
