<?xml version="1.0" encoding="utf-8"?><svg viewBox="0 0 33 33" xmlns="http://www.w3.org/2000/svg" xmlns:xlink="http://www.w3.org/1999/xlink"><style>:root>svg{display:none}:root>svg:target{display:block}</style><svg fill="none" viewBox="0 0 20 21" id="check_with_border" xmlns="http://www.w3.org/2000/svg"><path d="M8.516 13.99a.671.671 0 01-.227-.037.526.526 0 01-.196-.127l-2.6-2.565a.549.549 0 01-.159-.425.577.577 0 01.597-.589c.172 0 .313.055.424.164l2.161 2.133 5.124-5.056a.587.587 0 01.43-.164c.177 0 .32.054.431.164.11.11.166.25.166.425a.571.571 0 01-.166.425L8.94 13.826a.526.526 0 01-.196.127.671.671 0 01-.227.037z" fill="#007AA9"/><rect x=".667" y="1.323" width="18.667" height="18.667" rx="9.333" stroke="#007AA9" stroke-width="1.333"/></svg><svg fill="none" viewBox="0 0 24 25" id="circle_with_semicircle" xmlns="http://www.w3.org/2000/svg"><path fill-rule="evenodd" clip-rule="evenodd" d="M15 4.328c-4.42 0-8 3.58-8 8s3.58 8 8 8 8-3.58 8-8-3.58-8-8-8zm0 14c-3.31 0-6-2.69-6-6s2.69-6 6-6 6 2.69 6 6-2.69 6-6 6zM7 6.678a5.99 5.99 0 000 11.3v2.09c-3.45-.89-6-4.01-6-7.74 0-3.73 2.55-6.85 6-7.74v2.09z" fill="#828282"/></svg><svg fill="none" viewBox="0 0 24 25" id="clock_with_arrow" xmlns="http://www.w3.org/2000/svg"><path fill-rule="evenodd" clip-rule="evenodd" d="M4.5 12.328a9 9 0 119 9c-2.49 0-4.73-1.01-6.36-2.64l1.42-1.42a6.944 6.944 0 004.94 2.06c3.87 0 7-3.13 7-7s-3.13-7-7-7-7 3.13-7 7h3l-4 3.99-4-3.99h3zm8 1v-5H14v4.15l3.52 2.09-.77 1.28-4.25-2.52z" fill="#828282"/></svg><svg fill="none" viewBox="0 0 32 33" id="email" xmlns="http://www.w3.org/2000/svg"><rect y=".656" width="32" height="32" rx="4.571" fill="#F14336"/><g clip-path="url(#dclip0_364_6553)"><path d="M22.74 10.135H9.405c-.917 0-1.658.75-1.658 1.666l-.009 10c0 .917.75 1.667 1.667 1.667h13.333c.917 0 1.667-.75 1.667-1.667v-10c0-.916-.75-1.666-1.667-1.666zm0 3.333l-6.667 4.167-6.667-4.167v-1.667l6.667 4.167 6.666-4.167v1.667z" fill="#fff"/></g><defs><clipPath id="dclip0_364_6553"><path fill="#fff" transform="translate(6 6.656)" d="M0 0h20v20H0z"/></clipPath></defs></svg><svg fill="none" viewBox="0 0 24 24" id="eye" xmlns="http://www.w3.org/2000/svg"><path d="M18.973 11.92a1.177 1.177 0 010 1.578c-1.236 1.33-4.05 3.92-7.335 3.92s-6.098-2.59-7.335-3.92a1.177 1.177 0 010-1.577C5.54 10.59 8.353 8 11.638 8s6.099 2.59 7.335 3.92z" stroke="#575757" stroke-width="1.714" stroke-linecap="round" stroke-linejoin="round"/><path d="M11.638 15.064a2.355 2.355 0 100-4.71 2.355 2.355 0 000 4.71z" stroke="#575757" stroke-width="1.714" stroke-linecap="round" stroke-linejoin="round"/></svg><svg fill="none" viewBox="0 0 24 24" id="eye_slash" xmlns="http://www.w3.org/2000/svg"><path d="M17.866 10.592c.447.4.824.788 1.107 1.095a1.177 1.177 0 010 1.577c-1.236 1.33-4.05 3.92-7.335 3.92h-.471M7.953 16.16a14.599 14.599 0 01-3.65-2.896 1.177 1.177 0 010-1.577c1.237-1.33 4.05-3.921 7.335-3.921a7.723 7.723 0 013.685 1.024M18.113 6L5.163 18.95" stroke="#575757" stroke-width="1.714" stroke-linecap="round" stroke-linejoin="round"/><path d="M9.978 14.135a2.354 2.354 0 01-.695-1.66 2.355 2.355 0 012.355-2.354c.623.002 1.22.252 1.66.694M13.687 13.653c-.21.358-.51.654-.872.859" stroke="#575757" stroke-width="1.714" stroke-linecap="round" stroke-linejoin="round"/></svg><svg fill="none" viewBox="0 0 24 25" id="flag" xmlns="http://www.w3.org/2000/svg"><path fill-rule="evenodd" clip-rule="evenodd" d="M12.5 3.828l1 2h6v10h-7l-1-2h-5v7h-2v-17h8zm1 10h4v-6h-5l-1-2h-5v6h6l1 2z" fill="#828282"/></svg><svg fill="none" viewBox="0 0 24 25" id="flag_with_border" xmlns="http://www.w3.org/2000/svg"><path fill-rule="evenodd" clip-rule="evenodd" d="M13.337 9.169l-.792-1.585h-3.96v4.753h4.752l.793 1.585h3.168V9.169h-3.96zm0-3.169l.792 1.584h4.753v7.922h-5.545l-.792-1.584h-3.96v5.545H7V6h6.337z" fill="#828282"/><path d="M13.337 9.169l-.175.087.055.108h.12V9.17zm-.792-1.585l.175-.087-.054-.108h-.12v.195zm-3.96 0V7.39h-.196v.195h.195zm0 4.753h-.196v.196h.195v-.196zm4.752 0l.175-.087-.054-.108h-.12v.195zm.793 1.585l-.175.087.054.108h.12v-.195zm3.168 0v.195h.196v-.195h-.196zm0-4.753h.196v-.196h-.196v.196zM13.338 6l.174-.087-.054-.109h-.12V6zm.791 1.584l-.175.088.055.108h.12v-.196zm4.753 0h.196V7.39h-.196v.195zm0 7.922v.195h.196v-.195h-.196zm-5.545 0l-.175.087.054.108h.121v-.195zm-.792-1.584l.175-.088-.054-.108h-.12v.196zm-3.96 0v-.196h-.196v.196h.195zm0 5.545v.195h.195v-.195h-.196zm-1.585 0h-.196v.195H7v-.195zM7 6v-.196h-.196V6H7zm6.512 3.081l-.792-1.584-.35.175.793 1.584.35-.175zm-.967-1.692h-2.96v.39h2.96v-.39zm-2.96 0h-1v.39h1v-.39zm-1.196.195v1h.391v-1h-.391zm0 1v2.753h.391V8.584h-.391zm0 2.753v1h.391v-1h-.391zm.195 1.196h1v-.391h-1v.39zm1 0h3.753v-.391H9.584v.39zm3.579-.108l.792 1.584.35-.175-.793-1.584-.35.175zm.967 1.692h2.168v-.391H14.13v.391zm2.168 0h1v-.391h-1v.391zm1.196-.195v-1h-.391v1h.39zm0-1v-2.753h-.391v2.753h.39zm0-2.753v-1h-.391v1h.39zm-.196-1.196h-1v.391h1v-.39zm-1 0h-2.96v.391h2.96v-.39zm-3.136-2.886l.792 1.585.35-.175-.792-1.584-.35.174zm.967 1.693h3.753v-.391H14.13v.39zm3.753 0h1v-.391h-1v.39zm.805-.196v1h.39v-1h-.39zm0 1v5.922h.39V8.584h-.39zm0 5.922v1h.39v-1h-.39zm.195.804h-1v.391h1v-.39zm-1 0h-4.545v.391h4.545v-.39zm-4.37.108l-.792-1.584-.35.175.792 1.584.35-.175zm-.967-1.692h-2.96v.391h2.96v-.391zm-2.96 0h-1v.391h1v-.391zm-1.196.196v1h.39v-1h-.39zm0 1v3.545h.39v-3.545h-.39zm0 3.545v1h.39v-1h-.39zm.195.804H8v.391h.584v-.39zm-.584 0h-.416v.391H8v-.39zm-.416 0H7v.391h.584v-.39zm-.388.196v-1h-.392v1h.392zm0-1V7h-.392v11.467h.392zM7.196 7V6h-.392v1h.392zM7 6.196h1v-.392H7v.392zm1 0h5.337v-.392H8v.392z" fill="#828282"/><rect x="3" y="3" width="18" height="18" rx="9" stroke="#828282" stroke-width="2"/></svg><svg fill="none" viewBox="0 0 33 32" id="gmail" xmlns="http://www.w3.org/2000/svg"><rect x=".5" width="32" height="32" rx="4.571" fill="#F14336"/><g clip-path="url(#iclip0_357_5174)" fill="#fff"><path d="M12.046 17.668l-.557 2.08-2.036.043a7.964 7.964 0 01-.953-3.792 7.96 7.96 0 01.894-3.679l1.813.333.794 1.8a4.757 4.757 0 00.045 3.215zM24.36 14.506a8.006 8.006 0 01-.035 3.165 7.998 7.998 0 01-2.817 4.568l-2.283-.117-.323-2.017a4.768 4.768 0 002.052-2.434h-4.278v-3.165H24.36z"/><path d="M21.508 22.238A7.967 7.967 0 0116.5 24a7.999 7.999 0 01-7.047-4.209l2.593-2.122a4.757 4.757 0 006.856 2.436l2.606 2.133zM21.602 9.842l-2.591 2.121a4.758 4.758 0 00-7.014 2.491l-2.606-2.133A7.998 7.998 0 0116.496 8c1.941 0 3.72.691 5.106 1.842z"/></g><defs><clipPath id="iclip0_357_5174"><path fill="#fff" transform="translate(8.5 8)" d="M0 0h16v16H0z"/></clipPath></defs></svg><svg fill="none" viewBox="0 0 12 12" id="info" xmlns="http://www.w3.org/2000/svg"><path d="M6.008 5.333v3.334" stroke="#84A8BD" stroke-linecap="round"/><circle cx="6.007" cy="3.333" r=".667" fill="#84A8BD"/><rect x=".5" y=".5" width="11" height="11" rx="5.5" stroke="#84A8BD"/></svg><svg fill="none" viewBox="0 0 33 32" id="mail" xmlns="http://www.w3.org/2000/svg"><rect x=".5" width="32" height="32" rx="4.571" fill="#005FF9"/><g clip-path="url(#kclip0_357_5190)"><path d="M19.741 15.908c-.106-2.072-1.645-3.319-3.503-3.319h-.07c-2.145 0-3.334 1.686-3.334 3.602 0 2.145 1.439 3.5 3.326 3.5 2.103 0 3.486-1.541 3.586-3.364l-.005-.419zm-3.563-5.174c1.433 0 2.78.633 3.77 1.625v.004c0-.476.32-.835.765-.835h.112c.696 0 .839.658.839.866l.003 7.402c-.049.485.5.735.805.424 1.189-1.222 2.61-6.28-.74-9.21-3.12-2.732-7.31-2.282-9.537-.746-2.368 1.633-3.883 5.248-2.411 8.643 1.604 3.703 6.196 4.808 8.925 3.706 1.381-.558 2.02 1.31.584 1.92-2.168.924-8.203.83-11.023-4.054-1.904-3.297-1.804-9.1 3.249-12.105 3.865-2.3 8.96-1.664 12.033 1.545 3.212 3.355 3.024 9.637-.108 12.078-1.42 1.11-3.528.03-3.515-1.586l-.014-.529a5.273 5.273 0 01-3.737 1.553c-2.83 0-5.322-2.49-5.322-5.322 0-2.859 2.491-5.379 5.322-5.379" fill="#FF9E00"/></g><defs><clipPath id="kclip0_357_5190"><path fill="#fff" transform="translate(7.129 7)" d="M0 0h18.749v17.988H0z"/></clipPath></defs></svg><svg fill="none" viewBox="0 0 32 33" id="odnokl" xmlns="http://www.w3.org/2000/svg"><path d="M32 27.974c0 2.586-2.086 4.682-4.659 4.682H4.66C2.086 32.656 0 30.56 0 27.974V5.338C0 2.753 2.086.656 4.659.656H27.34C29.914.656 32 2.753 32 5.34v22.635z" fill="#F7931E"/><path d="M15.972 6.656c-2.825 0-5.115 2.302-5.115 5.141 0 2.84 2.29 5.141 5.115 5.141s5.115-2.302 5.115-5.14c0-2.84-2.29-5.142-5.115-5.142zm0 7.266a2.12 2.12 0 01-2.114-2.125 2.12 2.12 0 012.114-2.125 2.12 2.12 0 012.114 2.125 2.12 2.12 0 01-2.114 2.125zM17.777 21.029c2.047-.42 3.274-1.394 3.34-1.446.599-.483.695-1.363.214-1.965a1.386 1.386 0 00-1.955-.216c-.012.01-1.321 1.019-3.474 1.02-2.153-.001-3.49-1.01-3.503-1.02a1.386 1.386 0 00-1.954.216 1.403 1.403 0 00.214 1.965c.066.053 1.344 1.053 3.449 1.462l-2.934 3.082a1.403 1.403 0 00.036 1.976 1.382 1.382 0 001.966-.036l2.726-2.918 3 2.937a1.386 1.386 0 001.967-.001 1.403 1.403 0 00-.001-1.977l-3.091-3.08z" fill="#fff"/></svg><svg fill="none" viewBox="0 0 19 18" id="sort" xmlns="http://www.w3.org/2000/svg"><mask id="ma" fill="#fff"><path d="M0 6.5h19v4H0v-4z"/></mask><path d="M0 6.5h19v4H0v-4z" fill="#D9D9D9"/><path d="M19 9.5H0v2h19v-2z" fill="#9D9D9D" mask="url(#ma)"/><mask id="mb" fill="#fff"><path d="M4 .5h11v4H4v-4z"/></mask><path d="M4 .5h11v4H4v-4z" fill="#D9D9D9"/><path d="M15 3.5H4v2h11v-2z" fill="#9D9D9D" mask="url(#mb)"/><mask id="mc" fill="#fff"><path d="M4 13.5h11v4H4v-4z"/></mask><path d="M4 13.5h11v4H4v-4z" fill="#D9D9D9"/><path d="M15 16.5H4v2h11v-2z" fill="#9D9D9D" mask="url(#mc)"/></svg><svg fill="none" viewBox="0 0 18 18" id="square" xmlns="http://www.w3.org/2000/svg"><rect x=".5" y=".5" width="17" height="17" rx="1.5" fill="#fff" stroke="#007AA9"/></svg><svg fill="none" viewBox="0 0 18 18" id="square_active" xmlns="http://www.w3.org/2000/svg"><rect x=".5" y=".5" width="17" height="17" rx="1.5" fill="#01A0E1" stroke="#fff"/><path d="M5 9l3 3 5-6" stroke="#fff" stroke-linecap="round" stroke-linejoin="round"/></svg><svg fill="none" viewBox="0 0 24 25" id="star" xmlns="http://www.w3.org/2000/svg"><path fill-rule="evenodd" clip-rule="evenodd" d="M9.19 9.458L12 2.828l2.81 6.63 7.19.61-5.46 4.73 1.64 7.03-6.18-3.73-6.18 3.73 1.64-7.03L2 10.068l7.19-.61zm3.78.79L12 7.958l-.97 2.27-.47 1.11-1.2.1-2.47.21 1.88 1.63.91.79-.27 1.18-.56 2.41 2.12-1.28 1.03-.62 1.03.64 2.12 1.28-.56-2.41-.27-1.18.91-.79 1.88-1.63-2.47-.21-1.2-.1-.47-1.11z" fill="#828282"/></svg><svg fill="none" viewBox="0 0 24 25" id="star_with_border" xmlns="http://www.w3.org/2000/svg"><path fill-rule="evenodd" clip-rule="evenodd" d="M11.99 2.328c-5.52 0-9.99 4.48-9.99 10s4.47 10 9.99 10c5.53 0 10.01-4.48 10.01-10s-4.48-10-10.01-10zm7.48 7.16l-5.01-.43-2-4.71c3.21.19 5.91 2.27 7.01 5.14zM12 14.308l2.4 1.44-.64-2.73 2.11-1.83-2.78-.24L12 8.388l-1.09 2.57-2.78.24 2.11 1.83-.63 2.72 2.39-1.44zm-.46-9.96l-2 4.72-5.02.43c1.1-2.88 3.8-4.97 7.02-5.15zm-7.31 6.12c-.15.6-.23 1.22-.23 1.86 0 2.48 1.13 4.7 2.91 6.17l1.11-4.75-3.79-3.28zm3.61 8.68l4.16-2.51 4.16 2.5a7.924 7.924 0 01-4.17 1.19c-1.52 0-2.94-.44-4.15-1.18zm8.14-5.4l1.11 4.75a8.014 8.014 0 002.91-6.17c0-.64-.09-1.27-.23-1.86l-3.79 3.28z" fill="#828282"/></svg><svg fill="none" viewBox="0 0 32 33" id="telegram" xmlns="http://www.w3.org/2000/svg"><rect y=".656" width="32" height="32" rx="4.571" fill="#01A0E1"/><g clip-path="url(#rclip0_364_6557)"><path d="M22.309 8.41L6.583 14.504c-.632.283-.846.852-.153 1.16l4.035 1.29 9.754-6.06c.533-.38 1.078-.28.609.139l-8.378 7.625-.263 3.226c.244.499.69.501.975.253l2.317-2.204 3.97 2.988c.922.548 1.424.194 1.622-.811l2.604-12.393c.27-1.238-.19-1.783-1.366-1.309z" fill="#fff"/></g><defs><clipPath id="rclip0_364_6557"><path fill="#fff" transform="translate(6 6.656)" d="M0 0h20v20H0z"/></clipPath></defs></svg><svg fill="none" viewBox="0 0 32 33" id="vk" xmlns="http://www.w3.org/2000/svg"><rect y=".656" width="32" height="32" rx="4.571" fill="#406D97"/><path d="M25.396 21.026a1.297 1.297 0 00-.065-.124c-.33-.594-.96-1.323-1.89-2.187l-.02-.02-.01-.01-.01-.01h-.01c-.421-.402-.688-.672-.8-.81-.205-.265-.251-.532-.14-.802.08-.205.377-.637.891-1.297.27-.35.485-.63.643-.84 1.142-1.518 1.637-2.487 1.485-2.91l-.06-.098c-.039-.06-.141-.114-.306-.164-.165-.049-.376-.057-.633-.024l-2.85.02a.37.37 0 00-.198.004l-.128.03-.05.025-.04.03a.44.44 0 00-.108.104.677.677 0 00-.1.173c-.31.798-.662 1.54-1.058 2.226-.244.409-.468.763-.673 1.064-.204.3-.376.52-.514.662a3.582 3.582 0 01-.376.342c-.113.086-.198.122-.258.109a7.289 7.289 0 01-.168-.04.658.658 0 01-.222-.242 1.086 1.086 0 01-.114-.386 4.24 4.24 0 01-.035-.401 8.342 8.342 0 01.005-.475c.007-.205.01-.343.01-.416 0-.25.005-.522.015-.816l.025-.697c.006-.172.01-.353.01-.545 0-.19-.012-.341-.035-.45a1.543 1.543 0 00-.104-.316.532.532 0 00-.203-.238 1.14 1.14 0 00-.331-.134c-.35-.079-.795-.121-1.336-.128-1.227-.013-2.015.066-2.365.237a1.333 1.333 0 00-.376.297c-.119.145-.135.224-.05.238.396.059.677.2.842.425l.059.119c.046.085.092.237.139.455.046.218.075.458.089.722.032.482.032.894 0 1.237-.033.343-.065.61-.094.802a1.6 1.6 0 01-.253.682.17.17 0 01-.05.05.742.742 0 01-.266.05c-.093 0-.205-.047-.337-.14a2.375 2.375 0 01-.41-.38 5.084 5.084 0 01-.48-.678c-.178-.29-.363-.633-.554-1.03l-.159-.286a24.75 24.75 0 01-.405-.807 15.587 15.587 0 01-.456-1.024.653.653 0 00-.237-.316l-.05-.03a.678.678 0 00-.158-.084 1.052 1.052 0 00-.227-.064l-2.711.02c-.277 0-.465.062-.564.187l-.04.06a.32.32 0 00-.03.158c0 .072.02.162.06.267.395.93.826 1.827 1.29 2.692.466.864.87 1.56 1.213 2.087a24.66 24.66 0 001.049 1.494c.356.469.592.769.707.9.116.133.206.232.272.297l.248.238c.158.158.39.348.697.569a11.9 11.9 0 001.02.653c.372.214.806.39 1.3.524a4.5 4.5 0 001.445.164h1.138c.23-.02.406-.093.525-.218l.039-.05a.66.66 0 00.074-.182c.023-.083.035-.174.035-.273-.007-.283.015-.539.064-.766.05-.228.105-.4.168-.515a1.269 1.269 0 01.382-.435.632.632 0 01.078-.035c.159-.052.345-.001.56.154.214.155.415.346.603.574.188.227.414.483.678.766.264.284.495.495.692.634l.198.119c.133.079.304.151.515.217.21.066.395.083.554.05l2.533-.04c.25 0 .445-.041.584-.124.138-.082.22-.173.247-.272a.767.767 0 00.005-.336 1.243 1.243 0 00-.07-.262z" fill="#fff"/></svg><svg fill="none" viewBox="0 0 24 25" id="wallet" xmlns="http://www.w3.org/2000/svg"><path fill-rule="evenodd" clip-rule="evenodd" d="M20.5 5.328v2.28a2 2 0 011 1.72v6a2 2 0 01-1 1.72v2.28c0 1.1-.9 2-2 2h-14a2 2 0 01-2-2v-14a2 2 0 012-2h14c1.1 0 2 .9 2 2zm-8 10h7v-6h-7v6zm-8 4v-14h14v2h-6c-1.1 0-2 .9-2 2v6c0 1.1.9 2 2 2h6v2h-14zm9.5-7a1.5 1.5 0 113 0 1.5 1.5 0 01-3 0z" fill="#828282"/></svg><svg fill="none" viewBox="0 0 33 32" id="yandex" xmlns="http://www.w3.org/2000/svg"><rect x=".5" width="32" height="32" rx="4.571" fill="#fff"/><path d="M22.001 24.501h-3.154V8.932H17.44c-2.579 0-3.928 1.286-3.928 3.205 0 2.176.933 3.185 2.857 4.47l1.587 1.07-4.563 6.824H10l4.106-6.093c-2.36-1.681-3.69-3.323-3.69-6.093 0-3.462 2.42-5.816 7.003-5.816h4.563l.02 18.002z" fill="#FC3F1D"/></svg></svg>