<?xml version="1.0" encoding="utf-8"?><svg viewBox="0 0 32 32" xmlns="http://www.w3.org/2000/svg" xmlns:xlink="http://www.w3.org/1999/xlink"><style>:root>svg{display:none}:root>svg:target{display:block}</style><svg viewBox="0 0 14 25" id="arrow_bottom" xmlns="http://www.w3.org/2000/svg"><path d="M1.264 8.924a.896.896 0 011.276 0l4.465 4.526 4.466-4.526a.896.896 0 011.265.011.92.92 0 01.01 1.282l-5.103 5.172a.896.896 0 01-1.275 0l-5.104-5.172a.92.92 0 010-1.293z"/></svg><svg viewBox="0 0 10 18" id="arrow_left" xmlns="http://www.w3.org/2000/svg"><path d="M9.863 15.775L8.388 17.25.138 9 8.388.75l1.475 1.475L3.088 9l6.775 6.775z"/></svg><svg viewBox="0 0 24 25" id="arrow_right" xmlns="http://www.w3.org/2000/svg"><path d="M10.191 16.13a.69.69 0 01-.191-.478.69.69 0 01.191-.479l3.233-3.349-3.233-3.35a.69.69 0 01.008-.948.642.642 0 01.456-.198.641.641 0 01.46.19l3.694 3.828a.69.69 0 01.191.478.69.69 0 01-.191.478l-3.694 3.828a.641.641 0 01-.462.198.641.641 0 01-.462-.198z"/></svg><svg viewBox="0 0 18 18" id="arrow_up" xmlns="http://www.w3.org/2000/svg"><path d="M12.802 7.191A.69.69 0 0012.323 7a.689.689 0 00-.478.191l-3.35 3.233L5.148 7.19a.69.69 0 00-.949.008.641.641 0 00-.008.915l3.828 3.695a.69.69 0 00.478.191.69.69 0 00.478-.191l3.828-3.694A.642.642 0 0013 7.653a.642.642 0 00-.198-.462z"/></svg><svg viewBox="0 0 32 32" id="burger" xmlns="http://www.w3.org/2000/svg"><path d="M0 9h32v2H0zM0 15h32v2H0zM0 21h32v2H0z"/></svg><svg viewBox="0 0 16 16" id="calendar" xmlns="http://www.w3.org/2000/svg"><path fill-rule="evenodd" clip-rule="evenodd" d="M13.332 2h-.667V.667h-1.333V2H4.665V.667H3.332V2h-.667c-.733 0-1.333.6-1.333 1.333V14c0 .733.6 1.333 1.333 1.333h10.667c.733 0 1.333-.6 1.333-1.333V3.333c0-.733-.6-1.333-1.333-1.333zm0 12H2.665V6.667h10.667V14zM2.665 5.333h10.667v-2H2.665v2z"/></svg><svg viewBox="0 0 23 23" id="check" xmlns="http://www.w3.org/2000/svg"><g clip-path="url(#gclip0_723_7920)"><path d="M8.624 15.525L4.6 11.5l-1.341 1.342 5.366 5.366 11.5-11.5-1.341-1.341L8.624 15.525z"/></g><defs><clipPath id="gclip0_723_7920"><path d="M0 0h23v23H0z"/></clipPath></defs></svg><svg viewBox="0 0 32 32" id="close" xmlns="http://www.w3.org/2000/svg"><path d="M4 26.61L26.588 4.366 28 5.756 5.412 28z"/><path d="M5.412 4L28 26.244l-1.411 1.39L4 5.39z"/></svg><svg viewBox="0 0 24 24" id="file" xmlns="http://www.w3.org/2000/svg"><path fill-rule="evenodd" clip-rule="evenodd" d="M6 2h8l6 6v12c0 1.1-.9 2-2 2H5.99C4.89 22 4 21.1 4 20l.01-16c0-1.1.89-2 1.99-2zm0 2v16h12V9h-5V4H6z"/></svg><svg viewBox="0 0 19 18" id="four_squares" xmlns="http://www.w3.org/2000/svg"><path d="M3.313 7.875a.563.563 0 01-.563-.563V2.814a.562.562 0 01.563-.563h4.5a.563.563 0 01.562.563v4.498a.562.562 0 01-.563.563h-4.5zm7.874 0a.562.562 0 01-.562-.563V2.814a.562.562 0 01.563-.563h4.498a.562.562 0 01.563.563v4.498a.562.562 0 01-.563.563h-4.498zM3.314 15.75a.563.563 0 01-.563-.563v-4.5a.562.562 0 01.563-.562h4.5a.563.563 0 01.562.563v4.5a.563.563 0 01-.563.562h-4.5zm7.874 0a.563.563 0 01-.562-.563v-4.5a.562.562 0 01.563-.562h4.498a.562.562 0 01.563.563v4.5a.563.563 0 01-.563.562h-4.498z"/></svg><svg viewBox="0 0 24 24" id="globe" xmlns="http://www.w3.org/2000/svg"><path fill-rule="evenodd" clip-rule="evenodd" d="M2 12C2 6.48 6.47 2 11.99 2 17.52 2 22 6.48 22 12s-4.48 10-10.01 10C6.47 22 2 17.52 2 12zm13.97-4h2.95a8.03 8.03 0 00-4.33-3.56c.6 1.11 1.06 2.31 1.38 3.56zM12 4.04c.83 1.2 1.48 2.53 1.91 3.96h-3.82c.43-1.43 1.08-2.76 1.91-3.96zM4 12c0 .69.1 1.36.26 2h3.38c-.08-.66-.14-1.32-.14-2 0-.68.06-1.34.14-2H4.26c-.16.64-.26 1.31-.26 2zm1.08 4h2.95c.32 1.25.78 2.45 1.38 3.56A7.987 7.987 0 015.08 16zm0-8h2.95c.32-1.25.78-2.45 1.38-3.56-1.84.63-3.37 1.9-4.33 3.56zM12 19.96c-.83-1.2-1.48-2.53-1.91-3.96h3.82c-.43 1.43-1.08 2.76-1.91 3.96zM9.5 12c0 .68.07 1.34.16 2h4.68c.09-.66.16-1.32.16-2 0-.68-.07-1.35-.16-2H9.66c-.09.65-.16 1.32-.16 2zm5.09 7.56c.6-1.11 1.06-2.31 1.38-3.56h2.95a8.03 8.03 0 01-4.33 3.56zM16.5 12c0 .68-.06 1.34-.14 2h3.38c.16-.64.26-1.31.26-2s-.1-1.36-.26-2h-3.38c.08.66.14 1.32.14 2z"/></svg><svg viewBox="0 0 18 19" id="location_pin" xmlns="http://www.w3.org/2000/svg"><g clip-path="url(#lclip0_902_7414)"><path d="M9.031 1.453A6.031 6.031 0 003 7.484c0 1.114.218 2.265.844 3.094l5.187 6.875 5.188-6.875c.568-.753.844-2.085.844-3.094 0-3.33-2.7-6.03-6.032-6.03zm0 3.493a2.538 2.538 0 110 5.077 2.538 2.538 0 010-5.077z"/></g><defs><clipPath id="lclip0_902_7414"><path transform="translate(0 .453)" d="M0 0h18v18H0z"/></clipPath></defs></svg><svg viewBox="0 0 18 18" id="phone" xmlns="http://www.w3.org/2000/svg"><path d="M15.365 12.855l-3.049-2.772a.75.75 0 00-1.043.032l-1.795 1.846c-.432-.082-1.3-.353-2.194-1.245-.894-.895-1.165-1.765-1.245-2.194l1.844-1.796a.75.75 0 00.032-1.043l-2.77-3.048A.75.75 0 004.1 2.57L2.473 3.965a.75.75 0 00-.217.487c-.011.188-.226 4.629 3.218 8.075 3.005 3.003 6.768 3.223 7.805 3.223.151 0 .244-.005.269-.006a.744.744 0 00.486-.218l1.395-1.628a.748.748 0 00-.064-1.043z"/></svg><svg viewBox="0 0 18 18" id="search" xmlns="http://www.w3.org/2000/svg"><path d="M17 16.163l-4.47-4.47a6.52 6.52 0 10-.836.838L16.164 17l.836-.837zM2.205 7.531a5.326 5.326 0 1110.652 0 5.326 5.326 0 01-10.652 0z"/></svg><svg viewBox="0 0 21 21" id="telegram" xmlns="http://www.w3.org/2000/svg"><g clip-path="url(#oclip0_902_7436)"><path d="M18.595 2.43L.876 9.3c-.713.32-.954.96-.172 1.308l4.545 1.452L16.24 5.23c.6-.429 1.215-.314.686.157l-9.44 8.591-.296 3.636c.275.562.777.564 1.098.285l2.612-2.484 4.473 3.367c1.039.618 1.604.22 1.828-.914l2.933-13.964c.305-1.394-.215-2.009-1.539-1.474z"/></g><defs><clipPath id="oclip0_902_7436"><path transform="translate(.219 .656)" d="M0 0h20v20H0z"/></clipPath></defs></svg><svg viewBox="0 0 16 16" id="top_btn" xmlns="http://www.w3.org/2000/svg"><g clip-path="url(#pclip0_357_2866)"><path d="M0 8l1.41 1.41L7 3.83V16h2V3.83l5.58 5.59L16 8 8 0 0 8z"/></g><defs><clipPath id="pclip0_357_2866"><path d="M0 0h16v16H0z"/></clipPath></defs></svg><svg viewBox="0 0 25 25" id="youtube" xmlns="http://www.w3.org/2000/svg"><path d="M24.22 7.163a2.786 2.786 0 00-.767-1.27 3.05 3.05 0 00-1.338-.742c-1.878-.495-9.402-.495-9.402-.495a76.623 76.623 0 00-9.39.47c-.501.14-.961.4-1.338.76-.37.356-.638.795-.778 1.276a29.09 29.09 0 00-.488 5.494c-.012 1.841.151 3.68.488 5.494.137.48.404.916.775 1.27.371.352.833.607 1.341.742 1.903.494 9.39.494 9.39.494 3.141.036 6.281-.12 9.402-.47a3.05 3.05 0 001.338-.742 2.78 2.78 0 00.765-1.27c.346-1.81.513-3.651.501-5.495.026-1.851-.141-3.7-.5-5.517v.001zM10.32 16.08V9.233l6.26 3.424-6.26 3.423z"/></svg></svg>